<svg width="150" height="150" viewBox="0 0 150 150" fill="none" xmlns="http://www.w3.org/2000/svg">
<path fill-rule="evenodd" clip-rule="evenodd" d="M68.2167 15.1787C80.7832 14.2873 92.5952 16.7302 103.652 22.5074C92.5673 34.2694 81.119 45.6695 69.307 56.7077C68.9434 57.0698 68.5803 57.0698 68.2167 56.7077C64.0931 50.834 58.46 48.6625 51.3167 50.1934C43.1934 52.3133 38.8321 57.5611 38.2329 65.9364C38.4117 72.9893 41.6827 78.0558 48.0458 81.1365C53.9756 83.3308 59.6092 82.7879 64.9457 79.5079C75.5545 68.8537 86.2762 58.2679 97.1102 47.7505C104.486 54.8804 111.936 62.0283 119.462 69.1936C113.04 75.5879 106.589 82.0122 100.109 88.4652C97.9933 84.7319 94.8134 82.4703 90.5682 81.6794C81.0023 79.6583 74.1878 83.0062 70.1247 91.7224C67.9299 101.737 71.4735 108.884 80.7554 113.165C85.67 113.929 90.3949 113.386 94.9295 111.537C108.452 98.614 121.809 85.4946 134.999 72.1793C135.144 100.213 122.333 119.846 96.565 131.08C76.1744 138.173 57.0938 135.64 39.3232 123.48C20.5424 108.286 12.6376 88.6519 15.6087 64.5792C21.4113 40.5297 36.0397 24.6962 59.4941 17.0788C62.4958 16.5366 65.4037 15.9032 68.2167 15.1787Z" fill="#feed36"/>
</svg>
